<?xml version="1.0" encoding="UTF-8" standalone="no"?>
<!-- Created with Inkscape (http://www.inkscape.org/) -->

<svg
   xmlns:dc="http://purl.org/dc/elements/1.1/"
   xmlns:cc="http://creativecommons.org/ns#"
   xmlns:rdf="http://www.w3.org/1999/02/22-rdf-syntax-ns#"
   xmlns:svg="http://www.w3.org/2000/svg"
   xmlns="http://www.w3.org/2000/svg"
   xmlns:sodipodi="http://sodipodi.sourceforge.net/DTD/sodipodi-0.dtd"
   xmlns:inkscape="http://www.inkscape.org/namespaces/inkscape"
   width="344.99982"
   height="100"
   id="svg2"
   version="1.1"
   inkscape:version="0.48.2 r9819"
   sodipodi:docname="tommy.svg">
  <defs
     id="defs4" />
  <sodipodi:namedview
     id="base"
     pagecolor="#ffffff"
     bordercolor="#666666"
     borderopacity="1.0"
     inkscape:pageopacity="0.0"
     inkscape:pageshadow="2"
     inkscape:zoom="0.49497475"
     inkscape:cx="-215.55472"
     inkscape:cy="227.97145"
     inkscape:document-units="px"
     inkscape:current-layer="layer1"
     showgrid="false"
     inkscape:window-width="1366"
     inkscape:window-height="744"
     inkscape:window-x="0"
     inkscape:window-y="24"
     inkscape:window-maximized="1"
     fit-margin-top="0"
     fit-margin-left="0"
     fit-margin-right="0"
     fit-margin-bottom="0" />
  <metadata
     id="metadata7">
    <rdf:RDF>
      <cc:Work
         rdf:about="">
        <dc:format>image/svg+xml</dc:format>
        <dc:type
           rdf:resource="http://purl.org/dc/dcmitype/StillImage" />
        <dc:title />
      </cc:Work>
    </rdf:RDF>
  </metadata>
  <g
     inkscape:label="Ebene 1"
     inkscape:groupmode="layer"
     id="layer1"
     transform="translate(-225.00018,-602.36218)">
    <path
       sodipodi:type="arc"
       style="fill:#000000;fill-opacity:1"
       id="path2987"
       sodipodi:cx="246.47722"
       sodipodi:cy="261.41275"
       sodipodi:rx="105.05586"
       sodipodi:ry="81.822357"
       d="m 351.53308,261.41275 c 0,45.18924 -47.03511,81.82236 -105.05586,81.82236 -58.02075,0 -105.05586,-36.63312 -105.05586,-81.82236 0,-45.18924 47.03511,-81.82236 105.05586,-81.82236 58.02075,0 105.05586,36.63312 105.05586,81.82236 z"
       transform="matrix(0.09518745,0,0,0.12221599,536.53846,580.41336)" />
    <path
       sodipodi:type="arc"
       style="fill:#000000;fill-opacity:1"
       id="path2987-5"
       sodipodi:cx="246.47722"
       sodipodi:cy="261.41275"
       sodipodi:rx="105.05586"
       sodipodi:ry="81.822357"
       d="m 351.53308,261.41275 c 0,45.18924 -47.03511,81.82236 -105.05586,81.82236 -58.02075,0 -105.05586,-36.63312 -105.05586,-81.82236 0,-45.18924 47.03511,-81.82236 105.05586,-81.82236 58.02075,0 105.05586,36.63312 105.05586,81.82236 z"
       transform="matrix(0.09518745,0,0,0.12221599,536.53846,620.41336)" />
    <path
       sodipodi:type="arc"
       style="fill:#000000;fill-opacity:1"
       id="path2987-3"
       sodipodi:cx="246.47722"
       sodipodi:cy="261.41275"
       sodipodi:rx="105.05586"
       sodipodi:ry="81.822357"
       d="m 351.53308,261.41275 c 0,45.18924 -47.03511,81.82236 -105.05586,81.82236 -58.02075,0 -105.05586,-36.63312 -105.05586,-81.82236 0,-45.18924 47.03511,-81.82236 105.05586,-81.82236 58.02075,0 105.05586,36.63312 105.05586,81.82236 z"
       transform="matrix(0.09518745,0,0,0.12221599,496.53846,580.41336)" />
    <path
       sodipodi:type="arc"
       style="fill:#000000;fill-opacity:1"
       id="path2987-7"
       sodipodi:cx="246.47722"
       sodipodi:cy="261.41275"
       sodipodi:rx="105.05586"
       sodipodi:ry="81.822357"
       d="m 351.53308,261.41275 c 0,45.18924 -47.03511,81.82236 -105.05586,81.82236 -58.02075,0 -105.05586,-36.63312 -105.05586,-81.82236 0,-45.18924 47.03511,-81.82236 105.05586,-81.82236 58.02075,0 105.05586,36.63312 105.05586,81.82236 z"
       transform="matrix(0.09518745,0,0,0.12221599,536.53846,660.41336)" />
    <text
       xml:space="preserve"
       style="font-size:110.8074646px;font-style:normal;font-variant:normal;font-weight:normal;font-stretch:normal;line-height:300%;letter-spacing:0px;word-spacing:0px;fill:#000000;fill-opacity:1;stroke:none;font-family:Nimbus Sans L;-inkscape-font-specification:Nimbus Sans L"
       x="223.71783"
       y="696.56781"
       id="text3025"
       sodipodi:linespacing="300%"
       transform="scale(0.99537876,1.0046427)"><tspan
         sodipodi:role="line"
         id="tspan3027"
         x="223.71783"
         y="696.56781">Tomm</tspan></text>
  </g>
</svg>
